<svg width="20" height="20" viewBox="0 0 20 20" fill="none" xmlns="http://www.w3.org/2000/svg">
<g clip-path="url(#clip0_11217_679)">
<path d="M9.16669 3.3335H3.33335C2.89133 3.3335 2.4674 3.50909 2.15484 3.82165C1.84228 4.13421 1.66669 4.55814 1.66669 5.00016V16.6668C1.66669 17.1089 1.84228 17.5328 2.15484 17.8453C2.4674 18.1579 2.89133 18.3335 3.33335 18.3335H15C15.442 18.3335 15.866 18.1579 16.1785 17.8453C16.4911 17.5328 16.6667 17.1089 16.6667 16.6668V10.8335" stroke="black" stroke-width="1.5" stroke-linecap="round" stroke-linejoin="round"/>
<path d="M15.4167 2.0832C15.7482 1.75168 16.1978 1.56543 16.6667 1.56543C17.1355 1.56543 17.5852 1.75168 17.9167 2.0832C18.2482 2.41472 18.4345 2.86436 18.4345 3.3332C18.4345 3.80204 18.2482 4.25168 17.9167 4.5832L10 12.4999L6.66669 13.3332L7.50002 9.99986L15.4167 2.0832Z" stroke="black" stroke-width="1.2" stroke-linecap="round" stroke-linejoin="round"/>
</g>
<defs>
<clipPath id="clip0_11217_679">
<rect width="20" height="20" fill="white"/>
</clipPath>
</defs>
</svg>
