<svg width="146" height="146" viewBox="0 0 146 146" fill="none" xmlns="http://www.w3.org/2000/svg">
<path d="M72.6719 135.48C106.914 135.48 134.672 107.722 134.672 73.48C134.672 39.2383 106.914 11.48 72.6719 11.48C38.4302 11.48 10.6719 39.2383 10.6719 73.48C10.6719 107.722 38.4302 135.48 72.6719 135.48Z" stroke="#4D4D4D"/>
<path d="M17.9375 102.856C21.8875 109.163 31.4055 112.079 44.3965 110.962C57.3875 109.845 72.7855 104.787 87.2065 96.9C101.625 89.013 113.887 78.944 121.29 68.908C128.693 58.872 130.631 49.689 126.68 43.382" stroke="#4D4D4D"/>
<path d="M116.389 117.402C121.619 112.172 122.034 102.558 117.544 90.672C113.054 78.787 104.026 65.604 92.4473 54.025C80.8673 42.445 67.6853 33.418 55.8003 28.928C43.9143 24.438 34.3003 24.853 29.0703 30.083" stroke="#4D4D4D"/>
<path d="M76.3121 102.244C84.3321 98.746 92.1371 94.4 99.2041 89.498C106.27 84.596 112.434 79.25 117.282 73.821C122.13 68.392 125.55 63.003 127.313 58.018C129.076 53.033 129.139 48.566 127.5 44.918C125.862 41.268 122.558 38.523 117.812 36.863C113.065 35.204 106.985 34.67 99.9801 35.297C92.9751 35.924 85.2071 37.698 77.1971 40.5C69.1871 43.302 61.1211 47.065 53.5391 51.54" stroke="#4D4D4D"/>
<path d="M10.7812 77.354C11.4373 81.154 13.6962 84.189 17.4042 86.253C21.1122 88.317 26.1823 89.361 32.2643 89.312C38.3473 89.262 45.2992 88.122 52.6442 85.97C59.9892 83.818 67.5512 80.702 74.8142 76.839" stroke="#4D4D4D"/>
<path d="M10.7812 77.354C11.4373 81.154 13.6962 84.189 17.4042 86.253C21.1122 88.317 26.1823 89.361 32.2643 89.312C38.3473 89.262 45.2992 88.122 52.6442 85.97C59.9892 83.818 67.5512 80.702 74.8142 76.839" stroke="white"/>
<path d="M34.8951 122.552C38.1151 125.133 42.8821 126.657 48.8451 127.013C54.8081 127.369 61.8141 126.547 69.3521 124.608C76.8901 122.669 84.7681 119.662 92.4081 115.808C100.048 111.954 107.257 107.349 113.507 102.332C119.756 97.315 124.887 92.013 128.523 86.815C132.16 81.617 134.21 76.654 134.523 72.29C134.836 67.926 133.405 64.272 130.333 61.595C127.261 58.918 122.628 57.288 116.772 56.822M98.0771 60.29C87.4121 48.113 74.4271 37.902 61.9791 31.903C49.5311 25.904 38.6371 24.61 31.6961 28.303C24.7561 31.997 22.3351 40.376 24.9681 51.598C27.6011 62.82 35.0711 75.965 45.7351 88.14" stroke="#4D4D4D"/>
<path d="M98.0771 60.29C87.4121 48.113 74.4271 37.902 61.9791 31.903C49.5311 25.904 38.6371 24.61 31.6961 28.303C24.7561 31.997 22.3351 40.376 24.9681 51.598C27.6011 62.82 35.0711 75.965 45.7351 88.14" stroke="white"/>
<path d="M45.6719 90.48C47.3287 90.48 48.6719 89.1368 48.6719 87.48C48.6719 85.8231 47.3287 84.48 45.6719 84.48C44.015 84.48 42.6719 85.8231 42.6719 87.48C42.6719 89.1368 44.015 90.48 45.6719 90.48Z" fill="white"/>
<path d="M97.6719 62.48C99.3287 62.48 100.672 61.1368 100.672 59.48C100.672 57.8231 99.3287 56.48 97.6719 56.48C96.015 56.48 94.6719 57.8231 94.6719 59.48C94.6719 61.1368 96.015 62.48 97.6719 62.48Z" fill="white"/>
<path d="M76.3121 102.244C84.3321 98.746 92.1371 94.4 99.2041 89.498C106.27 84.596 112.434 79.25 117.282 73.821C122.13 68.392 125.55 63.003 127.313 58.018C129.076 53.033 129.139 48.566 127.5 44.918C125.862 41.268 122.558 38.523 117.812 36.863C113.065 35.204 106.985 34.67 99.9801 35.297C92.9751 35.924 85.2071 37.698 77.1971 40.5C69.1871 43.302 61.1211 47.065 53.5391 51.54" stroke="white"/>
<path d="M75.6719 105.48C77.3287 105.48 78.6719 104.137 78.6719 102.48C78.6719 100.823 77.3287 99.48 75.6719 99.48C74.015 99.48 72.6719 100.823 72.6719 102.48C72.6719 104.137 74.015 105.48 75.6719 105.48Z" fill="white"/>
<path d="M53.6719 54.48C55.3287 54.48 56.6719 53.1368 56.6719 51.48C56.6719 49.8231 55.3287 48.48 53.6719 48.48C52.015 48.48 50.6719 49.8231 50.6719 51.48C50.6719 53.1368 52.015 54.48 53.6719 54.48Z" fill="white"/>
<path d="M134.672 73.48C134.672 64.1914 132.585 55.0214 128.565 46.6477C124.545 38.2739 118.695 30.9104 111.447 25.1013C104.199 19.2921 95.7384 15.1857 86.6903 13.0855C77.6421 10.9853 68.2378 10.945 59.172 12.9675C50.1062 14.99 41.6107 19.0237 34.3132 24.7705C27.0156 30.5173 21.1026 37.8303 17.011 46.1693C12.9194 54.5082 10.7538 63.66 10.6742 72.9483C10.5945 82.2366 12.6029 91.4241 16.5509 99.832" stroke="white"/>
<path d="M134.672 75.48C136.329 75.48 137.672 74.1368 137.672 72.48C137.672 70.8231 136.329 69.48 134.672 69.48C133.015 69.48 131.672 70.8231 131.672 72.48C131.672 74.1368 133.015 75.48 134.672 75.48Z" fill="white"/>
</svg>
