<svg width="20" height="20" viewBox="0 0 20 20" fill="none" xmlns="http://www.w3.org/2000/svg">
<path d="M6.66667 10.5752L14.1583 17.1669C14.2449 17.2435 14.3499 17.2963 14.4631 17.3201C14.5763 17.3439 14.6937 17.3378 14.8038 17.3025C14.9139 17.2672 15.0129 17.2039 15.0912 17.1187C15.1694 17.0336 15.2241 16.9296 15.25 16.8169L18.3833 3.13352C18.4096 3.01568 18.4034 2.89291 18.3653 2.77833C18.3273 2.66375 18.2588 2.56165 18.1673 2.48294C18.0757 2.40423 17.9645 2.35185 17.8455 2.33141C17.7266 2.31096 17.6042 2.32321 17.4917 2.36685L2.10834 8.40852C1.49167 8.65019 1.57501 9.55019 2.22501 9.68352L6.66667 10.5752Z" stroke="white" stroke-width="1.5" stroke-linecap="round" stroke-linejoin="round"/>
<path d="M6.66675 10.575L18.0084 2.3833" stroke="white" stroke-width="1.5" stroke-linecap="round" stroke-linejoin="round"/>
<path d="M10.4084 13.8669L7.80841 16.4669C7.71566 16.5611 7.59699 16.6255 7.4675 16.6521C7.33801 16.6787 7.20353 16.6662 7.08117 16.6162C6.9588 16.5662 6.85407 16.4809 6.78028 16.3712C6.70649 16.2615 6.66697 16.1324 6.66675 16.0002V10.5752" stroke="white" stroke-width="1.5" stroke-linecap="round" stroke-linejoin="round"/>
</svg>
